# Blender v3.0.1 OBJ File: 'road.blend'
# www.blender.org
mtllib tile_edge_outward.mtl
o tile_edge_outward
v 2.000000 0.000000 2.000000
v 2.000000 0.500000 2.000000
v -2.000000 0.000000 -2.000000
v -2.000000 0.000000 2.000000
v -2.000000 0.500000 -2.000000
v 2.000000 0.500000 -2.000000
v 1.750000 0.500000 -2.000000
v 2.000000 0.500000 -1.750000
v 1.750000 0.500000 -1.750000
v -1.500000 0.500000 1.500000
v -1.500000 0.500000 -2.000000
v 2.000000 0.500000 1.500000
v -2.000000 0.500000 2.000000
vt 0.222222 0.222222
vt 1.000000 0.944444
vt 0.944445 0.944444
vt 0.944445 1.000000
vt 0.222222 1.000000
vt 1.000000 0.222222
vt 1.000000 1.000000
vt 0.000000 0.000000
vt 0.111111 0.111111
vt 0.111111 1.000000
vt 0.000000 1.000000
vt 1.000000 0.111111
vt 1.000000 0.000000
vn 0.0000 1.0000 0.0000
vn -1.0000 0.0000 0.0000
vn 0.0000 0.0000 1.0000
g tile_edge_outward_tile_edge_outward_sidewalk
usemtl sidewalk
s off
f 10/1/1 8/2/1 9/3/1 7/4/1
f 7/4/1 11/5/1 10/1/1
f 12/6/1 8/2/1 10/1/1
g tile_edge_outward_tile_edge_outward_border
usemtl border
f 9/3/1 8/2/1 6/7/1 7/4/1
g tile_edge_outward_tile_edge_outward_edge
usemtl edge
f 4/8/2 13/9/2 5/10/2 3/11/2
f 10/1/1 11/5/1 5/10/1 13/9/1
f 13/9/1 2/12/1 12/6/1 10/1/1
f 2/12/3 13/9/3 4/8/3 1/13/3
