# Blender v3.0.1 OBJ File: 'road.blend'
# www.blender.org
mtllib tile_edge_inward.mtl
o tile_edge_inward
v -8.000000 0.000000 8.000000
v 8.000000 0.250000 8.000000
v -8.000000 0.250000 -8.000000
v -8.000000 0.000000 -4.000000
v 4.000000 0.000000 8.000000
v 4.000000 0.000000 -4.000000
v 8.000000 0.250000 -8.000000
v 4.000000 0.500000 8.000000
v 8.000000 0.500000 8.000000
v -8.000000 0.500000 -8.000000
v 4.000000 0.500000 -4.000000
v -8.000000 0.500000 -4.000000
v 8.000000 0.500000 -8.000000
v 7.750000 0.500000 8.000000
v 7.750000 0.500000 -7.750000
v -8.000000 0.500000 -7.750000
vt 0.000000 0.000000
vt 0.707692 0.707692
vt 0.000000 0.707692
vt 0.707692 0.000000
vt 0.738462 0.738461
vt 0.738462 0.000000
vt 0.969231 0.969230
vt 0.969231 0.000000
vt 0.000000 0.738461
vt 0.000000 0.969230
vt 0.984616 0.000000
vt 0.984616 0.984616
vt 0.000000 0.984616
vt 1.000000 0.000000
vt 1.000000 1.000000
vt 0.000000 1.000000
vn 0.0000 1.0000 0.0000
vn 1.0000 0.0000 0.0000
vn 0.0000 0.0000 -1.0000
vn 0.0000 0.0000 1.0000
vn -1.0000 0.0000 0.0000
g tile_edge_inward_tile_edge_inward_terrain
usemtl terrain
s off
f 1/1/1 6/2/1 4/3/1
f 1/1/1 5/4/1 6/2/1
g tile_edge_inward_tile_edge_inward_sidewalk
usemtl sidewalk
f 11/5/1 8/6/1 15/7/1
f 14/8/1 15/7/1 8/6/1
f 11/5/1 15/7/1 12/9/1
f 16/10/1 12/9/1 15/7/1
g tile_edge_inward_tile_edge_inward_border
usemtl border
f 14/8/1 9/11/1 13/12/1
f 15/7/1 14/8/1 13/12/1
f 16/10/1 15/7/1 13/12/1
f 16/10/1 13/12/1 10/13/1
f 2/14/2 7/15/2 9/11/2
f 7/15/2 13/12/2 9/11/2
f 13/12/3 7/15/3 10/13/3
f 10/13/3 7/15/3 3/16/3
g tile_edge_inward_tile_edge_inward_edge
usemtl edge
f 11/5/4 4/3/4 6/2/4
f 5/4/5 11/5/5 6/2/5
f 5/4/5 8/6/5 11/5/5
f 11/5/4 12/9/4 4/3/4
