# Blender v3.0.1 OBJ File: 'road.blend'
# www.blender.org
mtllib tile_edge_outward_diagonal.mtl
o tile_edge_outward_diagonal
v -7.999999 0.000000 -7.999997
v 8.000000 0.000000 -4.000000
v 8.000000 0.500000 -4.000000
v 8.000000 0.000000 8.000000
v 4.000000 0.000000 -8.000000
v 4.000000 0.000000 -4.000000
v 4.000000 0.500000 -8.000000
v 4.000000 0.500000 -4.000000
v -7.999999 0.000000 4.000003
v -7.999999 0.500000 4.000002
v -3.999997 0.000000 8.000001
v -3.999999 0.000000 4.000001
v -3.999997 0.500000 8.000001
v -3.999999 0.500000 4.000001
v 8.000000 0.500000 -8.000000
v -7.999999 0.500000 8.000002
v 8.000000 0.500000 -7.750000
v 7.750000 0.500000 -7.750000
v 7.750000 0.500000 -8.000000
v -7.749998 0.500000 8.000002
v -7.999999 0.500000 7.750002
v -7.749999 0.500000 7.750002
vt 0.281250 0.000000
vt 1.000000 0.000000
vt 0.281250 0.281250
vt 0.718750 0.718750
vt 1.000000 0.718750
vt 0.718750 1.000000
vt 0.000000 1.000000
vt 0.000000 0.281250
vt 0.750000 1.000000
vt 0.750000 0.750000
vt 0.984375 1.000000
vt 0.984375 0.984375
vt 1.000000 0.750000
vt 1.000000 0.984375
vt 0.250000 0.000000
vt 0.250000 0.250000
vt 0.015625 0.000000
vt 0.015625 0.015625
vt 0.000000 0.015625
vt 0.000000 0.250000
vt 1.000000 1.000000
vt 0.000000 0.000000
vn 0.0000 1.0000 0.0000
vn -1.0000 0.0000 0.0000
vn 0.0000 0.0000 1.0000
vn 1.0000 -0.0000 -0.0000
vn -0.0000 -0.0000 -1.0000
g tile_edge_outward_diagonal_tile_edge_outward_diagonal_terrain
usemtl terrain
s off
f 11/1/1 4/2/1 12/3/1
f 6/4/1 4/2/1 2/5/1
f 5/6/1 1/7/1 6/4/1
f 12/3/1 1/7/1 9/8/1
f 12/3/1 6/4/1 1/7/1
f 12/3/1 4/2/1 6/4/1
g tile_edge_outward_diagonal_tile_edge_outward_diagonal_sidewalk
usemtl sidewalk
f 7/9/1 8/10/1 19/11/1
f 19/11/1 8/10/1 18/12/1
f 8/10/1 3/13/1 17/14/1
f 17/14/1 18/12/1 8/10/1
f 13/15/1 14/16/1 20/17/1
f 20/17/1 14/16/1 22/18/1
f 22/18/1 14/16/1 21/19/1
f 14/16/1 10/20/1 21/19/1
g tile_edge_outward_diagonal_tile_edge_outward_diagonal_border
usemtl border
f 19/11/1 18/12/1 15/21/1
f 15/21/1 18/12/1 17/14/1
f 16/22/1 20/17/1 22/18/1
f 16/22/1 22/18/1 21/19/1
g tile_edge_outward_diagonal_tile_edge_outward_diagonal_edge
usemtl edge
f 7/9/2 6/4/2 8/10/2
f 3/13/3 6/4/3 2/5/3
f 3/13/3 8/10/3 6/4/3
f 7/9/2 5/6/2 6/4/2
f 13/15/4 12/3/4 14/16/4
f 10/20/5 12/3/5 9/8/5
f 10/20/5 14/16/5 12/3/5
f 13/15/4 11/1/4 12/3/4
