# Blender v3.0.1 OBJ File: 'road.blend'
# www.blender.org
mtllib road_edge_outward_diagonal.mtl
o road_edge_outward_diagonal
v -7.999999 0.000000 -7.999997
v 8.000000 0.000000 -3.500000
v 8.000000 0.500000 -4.000000
v 8.000000 0.500000 -8.000000
v 8.000000 0.000000 8.000000
v 3.500000 0.000000 -8.000000
v 3.500000 0.000000 -3.500000
v 4.000000 0.500000 -8.000000
v 4.000000 0.500000 -4.000000
v -7.999999 0.000000 3.500003
v -7.999999 0.500000 4.000002
v -7.999998 0.500000 8.000003
v -3.499997 0.000000 8.000001
v -3.499999 0.000000 3.500001
v -3.999997 0.500000 8.000001
v -3.999999 0.500000 4.000001
vt 0.281250 0.000000
vt 1.000000 0.000000
vt 0.281250 0.281250
vt 0.718750 0.718750
vt 1.000000 0.718750
vt 0.718750 1.000000
vt 0.000000 1.000000
vt 0.000000 0.281250
vt 0.750000 0.750000
vt 1.000000 1.000000
vt 0.750000 1.000000
vt 1.000000 0.750000
vt 0.250000 0.000000
vt 0.250000 0.250000
vt 0.000000 0.000000
vt 0.000000 0.250000
vn 0.0000 1.0000 0.0000
vn -0.7071 0.7071 0.0000
vn 0.0000 0.7071 0.7071
vn 0.7071 0.7071 -0.0000
vn -0.0000 0.7071 -0.7071
g road_edge_outward_diagonal_road_edge_outward_diagonal_material
usemtl material
s off
f 13/1/1 5/2/1 14/3/1
f 7/4/1 5/2/1 2/5/1
f 6/6/1 1/7/1 7/4/1
f 14/3/1 1/7/1 10/8/1
f 14/3/1 7/4/1 1/7/1
f 14/3/1 5/2/1 7/4/1
g road_edge_outward_diagonal_road_edge_outward_diagonal_material_alt
usemtl material_alt
f 9/9/1 4/10/1 8/11/1
f 8/11/2 7/4/2 9/9/2
f 3/12/3 7/4/3 2/5/3
f 9/9/1 3/12/1 4/10/1
f 3/12/3 9/9/3 7/4/3
f 8/11/2 6/6/2 7/4/2
f 15/13/4 14/3/4 16/14/4
f 16/14/1 12/15/1 15/13/1
f 11/16/5 14/3/5 10/8/5
f 16/14/1 11/16/1 12/15/1
f 11/16/5 16/14/5 14/3/5
f 15/13/4 13/1/4 14/3/4
