# Blender v3.0.1 OBJ File: 'road.blend'
# www.blender.org
mtllib tile_edge_outward_diagonal.mtl
o tile_edge_outward_diagonal
v 2.000001 0.500000 2.000000
v -2.000000 0.500000 -1.999998
v 2.000000 0.500000 -2.000000
v -1.999999 0.500000 2.000002
v 2.000000 0.500000 -1.750000
v 1.750000 0.500000 -1.750000
v 1.750000 0.500000 -2.000000
v -1.749998 0.500000 2.000002
v -1.999999 0.500000 1.750002
v -1.749999 0.500000 1.750002
v -1.500000 0.500000 -1.999998
v -1.500000 0.500000 -1.499998
v -2.000000 0.500000 -1.499998
v 2.000001 0.500000 1.499999
v 1.500001 0.500000 2.000000
v 1.500001 0.500000 1.500000
vt 0.062500 0.062500
vt 0.875000 0.125001
vt 0.937499 0.937500
vt 0.125000 0.875000
vt 0.062500 0.000000
vt 0.875000 0.000001
vt 0.937499 1.000000
vt 0.125000 1.000000
vt 0.999999 0.937500
vt 1.000000 0.125001
vt 0.000000 0.062500
vt 0.000000 0.875000
vt 0.999999 1.000000
vt 0.000000 0.000000
vt 0.000000 1.000000
vt 1.000000 0.000001
vn 0.0000 1.0000 0.0000
g tile_edge_outward_diagonal_tile_edge_outward_diagonal_sidewalk
usemtl sidewalk
s off
f 10/1/1 16/2/1 6/3/1 12/4/1
f 16/2/1 10/1/1 8/5/1 15/6/1
f 12/4/1 6/3/1 7/7/1 11/8/1
f 5/9/1 6/3/1 16/2/1 14/10/1
f 9/11/1 10/1/1 12/4/1 13/12/1
g tile_edge_outward_diagonal_tile_edge_outward_diagonal_border
usemtl border
f 6/3/1 5/9/1 3/13/1 7/7/1
f 10/1/1 9/11/1 4/14/1 8/5/1
g tile_edge_outward_diagonal_tile_edge_outward_diagonal_edge
usemtl edge
f 12/4/1 11/8/1 2/15/1 13/12/1
f 16/2/1 15/6/1 1/16/1 14/10/1
