# Blender v3.0.1 OBJ File: 'road.blend'
# www.blender.org
mtllib tile_edge.mtl
o tile_edge
v -8.000000 0.000000 -8.000000
v -8.000000 0.000000 8.000000
v 8.000000 0.250000 -8.000000
v 8.000000 0.250000 8.000000
v 4.000000 0.000000 -8.000000
v 4.000000 0.000000 8.000000
v 4.000000 0.500000 8.000000
v 8.000000 0.500000 8.000000
v 8.000000 0.500000 -8.000000
v 4.000000 0.500000 -8.000000
v 7.750000 0.500000 8.000000
v 7.750000 0.500000 -8.000000
vt 0.000000 0.000000
vt 0.707692 0.000000
vt 0.707692 1.000000
vt 0.000000 1.000000
vt 0.969231 0.000000
vt 0.969231 1.000000
vt 0.738462 0.000000
vt 0.738462 1.000000
vt 1.000000 0.000000
vt 0.984616 1.000000
vt 0.984615 0.000000
vt 1.000000 1.000000
vn 0.0000 1.0000 0.0000
vn 1.0000 0.0000 0.0000
vn -1.0000 0.0000 -0.0000
g tile_edge_tile_edge_terrain
usemtl terrain
s off
f 2/1/1 6/2/1 5/3/1
f 2/1/1 5/3/1 1/4/1
g tile_edge_tile_edge_sidewalk
usemtl sidewalk
f 11/5/1 12/6/1 7/7/1
f 10/8/1 7/7/1 12/6/1
g tile_edge_tile_edge_border
usemtl border
f 4/9/2 9/10/2 8/11/2
f 4/9/2 3/12/2 9/10/2
f 12/6/1 11/5/1 9/10/1
f 8/11/1 9/10/1 11/5/1
g tile_edge_tile_edge_edge
usemtl edge
f 10/8/3 5/3/3 6/2/3
f 10/8/3 6/2/3 7/7/3
