# Blender v3.0.1 OBJ File: 'road.blend'
# www.blender.org
mtllib tile_edge_outward.mtl
o tile_edge_outward
v -8.000000 0.000000 8.000000
v 8.000000 0.000000 8.000000
v -8.000000 0.000000 -8.000000
v -8.000000 0.000000 -3.500000
v 8.000000 0.000000 -4.000000
v 8.000000 0.500000 -4.000000
v 3.500000 0.000000 8.000000
v 4.000000 0.000000 -8.000000
v 4.000000 0.000000 -4.000000
v 4.000000 0.500000 -8.000000
v 4.000000 0.500000 -4.000000
v 8.000000 0.500000 -8.000000
v 7.750000 0.500000 -8.000000
v 8.000000 0.500000 -7.750000
v 7.750000 0.500000 -7.750000
vt 0.000000 0.718750
vt 0.718750 1.000000
vt 0.000000 1.000000
vt 1.000000 0.718750
vt 0.718750 0.000000
vt 1.000000 0.000000
vt 0.000000 0.000000
vt 0.718750 0.718750
vt 0.750000 1.000000
vt 0.750000 0.750000
vt 0.984375 1.000000
vt 0.984375 0.984375
vt 1.000000 0.984375
vt 1.000000 0.750000
vt 1.000000 1.000000
vn 0.0000 1.0000 0.0000
vn -1.0000 0.0000 0.0000
vn 0.0000 0.0000 1.0000
g tile_edge_outward_tile_edge_outward_terrain
usemtl terrain
s off
f 4/1/1 8/2/1 3/3/1
f 5/4/1 7/5/1 2/6/1
f 1/7/1 9/8/1 4/1/1
f 1/7/1 7/5/1 9/8/1
f 5/4/1 9/8/1 7/5/1
f 4/1/1 9/8/1 8/2/1
g tile_edge_outward_tile_edge_outward_sidewalk
usemtl sidewalk
f 10/9/1 11/10/1 13/11/1
f 13/11/1 11/10/1 15/12/1
f 15/12/1 11/10/1 14/13/1
f 11/10/1 6/14/1 14/13/1
g tile_edge_outward_tile_edge_outward_border
usemtl border
f 12/15/1 13/11/1 15/12/1
f 12/15/1 15/12/1 14/13/1
g tile_edge_outward_tile_edge_outward_edge
usemtl edge
f 10/9/2 9/8/2 11/10/2
f 6/14/3 9/8/3 5/4/3
f 6/14/3 11/10/3 9/8/3
f 10/9/2 8/2/2 9/8/2
