# Blender v3.0.1 OBJ File: 'road.blend'
# www.blender.org
mtllib road_edge_inward.mtl
o road_edge_inward
v -8.000000 0.000000 8.000000
v 8.000000 0.250000 8.000000
v -8.000000 0.250000 -8.000000
v -8.000000 0.000000 -3.500000
v 8.000000 0.250000 -4.000000
v 3.500000 0.000000 8.000000
v 4.000000 0.250000 -8.000000
v 3.500000 0.000000 -3.500000
v 8.000000 0.250000 -8.000000
v 4.000000 0.500000 8.000000
v 8.000000 0.500000 8.000000
v 4.000000 0.500000 -8.000000
v -8.000000 0.500000 -8.000000
v 8.000000 0.500000 -4.000000
v 4.000000 0.500000 -4.000000
v -8.000000 0.500000 -4.000000
v 8.000000 0.500000 -8.000000
vt 0.000000 0.000000
vt 0.707692 0.718750
vt 0.000000 0.718750
vt 0.707692 0.000000
vt 1.000000 0.750000
vt 0.984615 0.000000
vt 1.000000 0.000000
vt 0.738462 0.750000
vt 0.984615 0.984375
vt 0.738462 0.984375
vt 1.000000 1.000000
vt 0.738462 1.000000
vt 0.984615 0.750000
vt 0.738462 0.000000
vt 0.000000 0.750000
vt 0.000000 0.984375
vt 0.000000 1.000000
vn 0.0000 1.0000 0.0000
vn 1.0000 0.0000 0.0000
vn 0.0000 0.0000 -1.0000
vn 0.0000 0.7071 0.7071
vn -0.7071 0.7071 0.0000
g road_edge_inward_road_edge_inward_material
usemtl material
s off
f 1/1/1 8/2/1 4/3/1
f 1/1/1 6/4/1 8/2/1
g road_edge_inward_road_edge_inward_material_alt
usemtl material_alt
f 5/5/2 11/6/2 2/7/2
f 15/8/1 17/9/1 12/10/1
f 12/10/3 9/11/3 7/12/3
f 15/8/4 4/3/4 8/2/4
f 9/11/2 14/13/2 5/5/2
f 14/13/1 10/14/1 11/6/1
f 12/10/1 16/15/1 15/8/1
f 6/4/5 15/8/5 8/2/5
f 13/16/3 7/12/3 3/17/3
f 15/8/1 14/13/1 17/9/1
f 12/10/1 13/16/1 16/15/1
f 14/13/1 15/8/1 10/14/1
f 6/4/5 10/14/5 15/8/5
f 15/8/4 16/15/4 4/3/4
f 5/5/2 14/13/2 11/6/2
f 9/11/2 17/9/2 14/13/2
f 12/10/3 17/9/3 9/11/3
f 13/16/3 12/10/3 7/12/3
